<svg width="1920" height="1080" viewBox="0 0 1920 1080" fill="none" xmlns="http://www.w3.org/2000/svg">
<g opacity="0.2">
<mask id="mask0_10_48" style="mask-type:alpha" maskUnits="userSpaceOnUse" x="0" y="0" width="1920" height="1080">
<g clip-path="url(#clip0_10_48)">
<path d="M784.416 272.07C909.685 272.079 1030.37 326.291 1122.49 423.937C1214.62 521.583 1271.44 655.52 1281.69 799.142C1210.25 824.88 1134.69 831.802 1060.61 819.394C986.526 806.986 915.821 775.567 853.727 727.463C791.632 679.359 739.74 615.803 701.893 541.501C664.045 467.199 641.212 384.055 635.084 298.225C683.419 280.837 733.773 272.018 784.416 272.07ZM784.416 270.92C733.406 270.853 682.687 279.774 634.024 297.374C654.44 593.482 869.731 826.447 1132.35 826.447C1183.36 826.514 1234.08 817.593 1282.75 799.993C1262.33 503.885 1047.04 270.92 784.416 270.92Z" fill="white"/>
<path d="M773.738 208.639C926.692 208.762 1075.01 269.071 1194.05 379.551C1313.1 490.031 1395.7 644.033 1428.16 815.98C1366.39 849.155 1300.58 871.3 1233 881.654C1203.2 886.239 1173.16 888.544 1143.09 888.555C1066.37 888.599 990.227 873.373 918.022 843.55C775.839 784.816 654.955 672.787 574.805 525.473C534.021 450.415 504.858 367.791 488.611 281.271C550.383 248.101 616.191 225.959 683.765 215.609C713.57 211.023 743.608 208.718 773.678 208.708H773.738M773.678 207.558C743.564 207.558 713.483 209.863 683.635 214.459C615.696 224.843 549.54 247.139 487.471 280.57C554.219 636.912 829.408 889.706 1143.09 889.706C1173.21 889.705 1203.29 887.4 1233.13 882.805C1301.08 872.397 1367.23 850.082 1429.3 816.636C1362.55 460.282 1087.36 207.466 773.678 207.489V207.558Z" fill="white"/>
<path d="M762.1 137.111C853.138 137.097 943.576 154.047 1029.9 187.304C1159.06 236.72 1275.98 321.165 1370.8 433.507C1465.62 545.849 1535.54 682.788 1574.67 832.762C1499.48 881.737 1418.22 917.221 1333.72 937.99C1274.88 952.531 1214.87 959.887 1154.69 959.935C1063.65 959.944 973.207 942.994 886.878 909.742C802.002 877.098 722.127 829.275 650.191 768.031C577.918 706.614 514.584 632.382 462.555 548.109C409.203 461.695 368.512 365.814 342.097 264.272C470.257 181.035 614.915 137.237 762.09 137.111M762.09 135.961C614.473 136.08 469.389 180.094 340.918 263.732C449.368 681.24 784.366 961.085 1154.68 961.085C1214.93 961.078 1275.01 953.729 1333.92 939.163C1418.79 918.314 1500.39 882.629 1575.87 833.348C1467.42 415.84 1132.42 135.984 762.11 135.995L762.09 135.961Z" fill="white"/>
<path d="M750.423 61.7061C963.127 61.7395 1170.61 137.472 1344.43 278.516C1518.24 419.561 1649.86 619.01 1721.24 849.508C1632.61 914.311 1535.9 963.162 1434.45 994.371C1347.07 1021.4 1256.98 1035.13 1166.5 1035.2C1060.65 1035.2 955.45 1016.34 854.624 979.304C755.134 942.822 661.013 889.24 575.455 820.374C489.429 751.238 413.092 667.386 349.086 571.721C283.413 473.548 231.59 364.088 195.524 247.365C361.458 126.338 553.838 61.9585 750.313 61.7061H750.423ZM750.343 60.5559C553.419 60.8055 360.611 125.424 194.384 246.882C342.357 726.119 737.235 1036.31 1166.49 1036.31C1257.07 1036.25 1347.26 1022.51 1434.74 995.429C1536.53 964.123 1633.56 915.072 1722.44 849.98C1574.47 370.731 1179.59 60.4984 750.343 60.5444V60.5559Z" fill="white"/>
<path d="M738.535 -15.8262C981.911 -15.8713 1219.69 68.1946 1421.03 225.472C1622.38 382.749 1778 605.984 1867.74 866.232C1765.71 946.859 1653.57 1009.08 1535.2 1050.73C1419.56 1091.66 1299.26 1112.51 1178.26 1112.6C1057.38 1112.58 937.185 1091.72 821.68 1050.71C707.485 1010.21 599.076 950.653 499.918 873.938C400.114 796.827 310.822 703.085 234.967 595.783C157.129 485.652 94.4131 362.456 49.0011 230.481C252.045 70.4039 492.364 -15.4423 738.515 -15.8262M738.515 -16.9764C491.899 -16.5859 251.141 69.5166 47.8013 230.044C233.977 771.436 688.974 1113.69 1178.27 1113.69C1299.36 1113.62 1419.76 1092.75 1535.49 1051.78C1654.21 1010.03 1766.67 947.616 1868.97 866.704C1682.79 325.277 1227.8 -16.9994 738.495 -16.9764H738.515Z" fill="white"/>
<path d="M726.737 -94.6466C1001.02 -94.7658 1269.28 -2.16595 1498.19 171.646C1727.1 345.458 1906.57 592.818 2014.29 882.989C1898.84 979.416 1771.25 1054.98 1635.95 1107.06C1492.28 1162.73 1341.69 1191.16 1190.09 1191.24C1054.03 1191.21 918.708 1168.28 788.416 1123.19C659.405 1078.61 536.625 1012.96 423.832 928.248C310.245 843.033 208.037 739.264 120.418 620.201C30.5154 497.953 -42.9538 360.896 -97.5422 213.596C142.212 13.7341 430.622 -94.1221 726.707 -94.6466M726.647 -95.7968C430.106 -95.2576 141.269 12.8734 -98.752 213.205C124.937 817.039 640.053 1192.35 1190.09 1192.35C1341.8 1192.25 1492.48 1163.8 1636.26 1108.11C1771.91 1055.9 1899.81 980.096 2015.51 883.334C1791.82 279.5 1276.71 -95.8313 726.667 -95.7968H726.647Z" fill="white"/>
<path d="M714.989 -174.307C1017.79 -173.97 1314.21 -74.173 1569.39 113.348C1829.65 304.401 2034.19 576.276 2160.83 899.654C2031.97 1011.9 1888.95 1100.82 1736.72 1163.35C1563.81 1234.58 1383.88 1270.7 1201.9 1270.7C1050.57 1270.66 900.033 1245.64 754.882 1196.42C611.014 1147.7 473.841 1075.87 347.416 983.064C87.1341 792.022 -117.418 520.136 -244.065 196.735C-115.202 84.4838 27.8208 -4.44624 180.047 -66.9739C352.915 -138.18 532.862 -174.295 714.889 -174.307H714.989ZM714.869 -175.457C368.198 -174.79 31.1454 -44.2678 -245.305 196.367C15.4272 862.849 590.712 1271.85 1201.9 1271.85C1379.51 1271.85 1560.25 1237.26 1737.05 1164.43C1889.63 1101.79 2032.96 1012.63 2162.07 900.057C1901.34 233.54 1326.06 -175.514 714.869 -175.457Z" fill="white"/>
<path d="M703.181 -254.542C1036.72 -254.18 1363.45 -145.867 1646.01 58.0142C1933.61 265.024 2163.23 563.036 2307.36 916.344C2165.07 1044.42 2006.61 1146.72 1837.44 1219.7C1736.51 1263.39 1632.35 1296.5 1526.24 1318.61C1423.09 1340 1318.48 1350.77 1213.67 1350.82C1047.02 1350.77 881.21 1323.65 721.158 1270.24C562.396 1217.31 410.804 1139.24 270.741 1038.27C-16.882 831.255 -246.509 533.215 -390.618 179.874C-248.336 51.7957 -89.8666 -50.5044 79.2956 -123.481C180.227 -167.174 284.385 -200.28 390.499 -222.395C493.651 -243.786 598.256 -254.564 703.071 -254.599H703.191M703.071 -255.749C495.629 -255.749 284.568 -213.562 78.9357 -124.631C-90.5765 -51.4954 -249.349 51.0809 -391.858 179.529C-94.4126 908.73 541.121 1351.91 1213.71 1351.91C1421.15 1351.91 1632.21 1309.72 1837.84 1220.79C2007.35 1147.68 2166.12 1045.13 2308.63 916.712C2011.19 187.442 1375.65 -255.749 703.061 -255.692L703.071 -255.749Z" fill="white"/>
<path d="M691.434 -335.214C1055.81 -334.832 1412.91 -217.916 1722.85 2.47278C2038.48 226.42 2292.09 549.221 2453.94 933.044C2298.25 1076.94 2124.34 1192.61 1938.26 1276.03C1823.27 1327.74 1704.32 1366.94 1582.98 1393.12C1465.09 1418.45 1345.43 1431.21 1225.51 1431.25C1043.51 1431.19 862.403 1401.92 687.434 1344.3C513.747 1287.13 347.718 1202.77 194.015 1093.56C-121.654 869.643 -375.294 546.847 -537.172 163.012C-381.462 19.1183 -207.54 -96.5367 -21.436 -179.943C93.5499 -231.651 212.495 -270.851 333.839 -297.029C451.708 -322.361 571.355 -335.144 691.264 -335.214H691.434ZM691.264 -336.364C453.967 -336.364 212.521 -286.39 -21.8559 -181.093C-213.321 -94.9803 -386.369 21.8875 -538.411 162.69C-204.473 954.828 491.31 1432.4 1225.51 1432.4C1462.8 1432.4 1704.27 1382.45 1938.63 1277.13C2130.09 1191.05 2303.14 1074.17 2455.18 933.412C2121.24 141.217 1425.45 -336.364 691.264 -336.364Z" fill="white"/>
<path d="M679.655 -416.14C975.722 -415.86 1268.55 -345.327 1539.85 -208.948C1811.14 -72.5687 2055.07 126.723 2256.37 376.47C2394.14 547.797 2510 740.823 2600.45 949.733C2432.11 1109 2243.15 1237.73 2039.04 1332.37C1910.03 1392.21 1776.31 1437.6 1639.73 1467.9C1507.11 1497.21 1372.38 1511.99 1237.33 1512.03C1039.93 1511.98 843.474 1480.56 653.54 1418.68C464.919 1357.29 284.445 1266.63 117.099 1149.19C-51.6368 1030.87 -205.33 886.265 -339.608 719.482C-477.396 548.137 -593.265 355.087 -683.725 146.151C-515.296 -13.112 -326.38 -141.849 -122.268 -236.473C6.73796 -296.315 140.459 -341.707 277.039 -372.019C409.659 -401.315 544.393 -416.088 679.436 -416.14H679.616M679.436 -417.29C412.224 -417.29 140.364 -359.494 -122.678 -237.543C-331.489 -140.722 -519.855 -10.3977 -684.975 145.852C-314.712 1000.95 441.379 1513.18 1237.33 1513.18C1504.54 1513.18 1776.4 1455.38 2039.45 1333.44C2248.3 1236.61 2436.66 1106.29 2601.78 950.043C2231.48 94.9455 1475.39 -417.37 679.436 -417.29Z" fill="white"/>
<path d="M667.778 -497.329C987.083 -497.068 1302.96 -421.649 1595.99 -275.711C1889.01 -129.772 2152.97 83.5973 2371.64 351.27C2521.34 534.949 2647.74 742.047 2747.06 966.421C2565.28 1141.46 2360.99 1283.53 2139.83 1388.7C1996.82 1456.73 1848.33 1508.35 1696.51 1542.82C1549.14 1576.15 1399.3 1592.96 1249.1 1593C1036.29 1592.94 824.484 1559.37 619.587 1493.22C416.006 1427.58 221.068 1330.6 40.0628 1204.91C-142.447 1078.21 -308.971 923.284 -454.847 744.475C-604.562 560.787 -730.959 353.681 -830.288 129.301C-648.491 -45.7421 -444.199 -187.81 -223.039 -292.98C-80.0333 -361.006 68.4593 -412.629 220.28 -447.102C367.655 -480.424 517.492 -497.23 667.688 -497.283H667.778M667.688 -498.433C370.492 -498.456 68.2976 -432.759 -223.399 -294.038C-449.658 -186.464 -653.32 -42.6942 -831.528 129.013C-425.092 1047.1 391.368 1594.2 1249.09 1594.2C1546.28 1594.2 1848.48 1528.48 2140.2 1389.76C2366.44 1282.19 2570.12 1138.42 2748.31 966.72C2341.86 48.6169 1525.4 -498.537 667.688 -498.479V-498.433Z" fill="white"/>
<path d="M656.03 -578.68C1113.15 -578.246 1561.63 -435.34 1953.79 -165.151C2353.67 109.774 2679.08 507.385 2893.56 983.112C2698.43 1173.94 2478.73 1329.31 2240.56 1445.04C2083.57 1521.34 1920.31 1579.28 1753.24 1617.97C1591.11 1655.35 1426.17 1674.2 1260.82 1674.24C1032.58 1674.18 805.401 1638.44 585.523 1568.02C366.997 1498.08 157.617 1394.74 -37.0134 1260.74C-233.308 1125.67 -412.674 960.444 -570.156 769.62C-731.778 573.537 -868.67 352.322 -976.821 112.452C-781.687 -78.371 -561.987 -233.746 -323.821 -349.475C-166.824 -425.778 -3.55148 -483.712 163.53 -522.402C325.657 -559.781 490.599 -578.631 655.95 -578.68H656.07M655.95 -579.83C328.81 -579.83 -3.84944 -506.127 -324.161 -350.534C-567.826 -232.194 -786.826 -74.9781 -978.081 112.199C-535.562 1093.38 341.237 1675.43 1260.86 1675.43C1588 1675.43 1920.66 1601.73 2240.97 1446.13C2484.59 1327.79 2703.59 1170.58 2894.85 983.423C2452.33 2.22078 1575.53 -579.887 655.91 -579.83H655.95Z" fill="white"/>
<path d="M644.172 -660.192C1132.3 -659.742 1611.31 -508.112 2030.92 -221.221C2458.88 70.7795 2808.19 493.402 3040.14 999.8C2831.66 1206.39 2596.55 1375.15 2341.36 1501.37C2170.42 1585.98 1992.4 1650.25 1810.09 1693.17C1633.21 1734.63 1453.15 1755.54 1272.64 1755.58C1028.95 1755.5 786.395 1717.59 551.529 1642.87C318.022 1568.65 94.1622 1458.95 -114.129 1316.65C-324.215 1173.16 -516.42 997.574 -685.495 794.681C-859.028 586.225 -1006.42 350.929 -1123.41 95.6016C-914.883 -111.002 -679.776 -279.753 -424.592 -405.972C-253.653 -490.586 -75.6344 -554.854 106.68 -597.772C283.569 -639.23 463.63 -660.141 644.152 -660.192M644.152 -661.342C287.007 -661.342 -76.0562 -579.611 -424.972 -407.03C-685.995 -277.936 -920.272 -107.264 -1124.63 95.3256C-646.122 1139.59 291.106 1756.73 1272.64 1756.73C1629.78 1756.73 1992.84 1675.07 2341.76 1502.43C2602.71 1373.33 2837.07 1202.67 3041.4 1000.06C2562.89 -44.2234 1625.69 -661.353 644.132 -661.342H644.152Z" fill="white"/>
<path d="M632.515 -741.807C1150.34 -741.807 1660.61 -581.21 2108.14 -277.384C2564.15 31.7412 2937.32 479.405 3186.7 1016.48C2964.86 1238.86 2714.34 1420.95 2442.14 1557.71C2257.25 1650.65 2064.47 1721.27 1866.91 1768.43C1675.27 1813.98 1480.1 1836.96 1284.41 1837.01C766.51 1837.01 256.243 1676.43 -191.315 1372.62C-415.186 1220.74 -620.222 1034.8 -800.873 819.846C-986.283 598.974 -1144.14 349.562 -1269.93 78.7516C-1048.09 -143.62 -797.574 -325.725 -525.344 -462.479C-340.462 -555.424 -147.694 -626.046 49.8612 -673.211C241.498 -718.761 436.669 -741.744 632.354 -741.807H632.515ZM632.354 -742.957C245.245 -742.957 -148.343 -653.141 -525.773 -463.468C-804.153 -323.712 -1053.79 -139.56 -1271.21 78.4871C-756.731 1185.94 240.786 1838.23 1284.39 1838.23C1671.5 1838.23 2065.09 1748.43 2442.52 1558.81C2720.92 1418.91 2970.56 1234.75 3187.98 1016.74C2673.5 -90.7014 1675.98 -743.003 632.374 -743.003L632.354 -742.957Z" fill="white"/>
<path d="M620.717 -823.526C1169.42 -823.526 1710.45 -654.107 2185.33 -333.558C2669.42 -7.31515 3066.46 465.403 3333.26 1033.17C3098.05 1271.32 2832.15 1466.78 2542.92 1614C2344.09 1715.32 2136.56 1792.33 1923.74 1843.76C1717.34 1893.43 1507.05 1918.48 1296.18 1918.52C747.443 1918.52 206.382 1749.12 -268.531 1428.62C-506.181 1268.33 -724.042 1072.04 -916.272 845.022C-1113.58 611.739 -1281.91 348.205 -1416.49 61.9017C-1181.28 -176.25 -915.372 -371.708 -626.155 -518.929C-427.321 -620.265 -219.784 -697.292 -6.95848 -748.742C199.435 -798.395 409.728 -823.447 620.587 -823.503H620.717M620.587 -824.653C203.453 -824.653 -220.579 -726.751 -626.555 -520.01C-922.271 -369.408 -1187.22 -171.891 -1417.74 61.6487C-867.381 1232.26 190.525 1919.73 1296.18 1919.73C1713.32 1919.73 2137.35 1821.83 2543.32 1615.09C2839.09 1464.42 3104.04 1266.91 3334.51 1033.42C2784.15 -137.191 1726.24 -824.722 620.587 -824.664V-824.653Z" fill="white"/>
</g>
</mask>
<g mask="url(#mask0_10_48)">
<rect x="-6" y="-1" width="1932" height="1075" fill="url(#paint0_radial_10_48)" fill-opacity="0.37"/>
</g>
</g>
<defs>
<radialGradient id="paint0_radial_10_48" cx="0" cy="0" r="1" gradientUnits="userSpaceOnUse" gradientTransform="translate(960 536.5) rotate(90) scale(946.97 1274.79)">
<stop offset="0.2" stop-opacity="0"/>
<stop offset="0.595" stop-color="white"/>
<stop offset="1" stop-opacity="0"/>
</radialGradient>
<clipPath id="clip0_10_48">
<rect width="1920" height="1080" fill="white"/>
</clipPath>
</defs>
</svg>
