<svg width="465" height="370" viewBox="0 0 465 370" fill="none" xmlns="http://www.w3.org/2000/svg">
<g clip-path="url(#clip0_1_6)">
<g clip-path="url(#clip1_1_6)" filter="url(#filter0_f_1_6)">
<g clip-path="url(#clip2_1_6)">
<path d="M312.122 240.583L328.194 198.715C333.522 184.835 344.145 173.64 357.727 167.593C371.309 161.546 386.737 161.142 400.617 166.47C414.497 171.798 425.692 182.422 431.739 196.004C437.786 209.586 438.19 225.014 432.862 238.894L416.791 280.761M291.188 232.547L437.725 288.797C449.286 293.235 455.061 306.205 450.623 317.766L422.498 391.035C418.06 402.596 405.09 408.371 393.528 403.933L246.992 347.683C235.431 343.245 229.656 330.274 234.094 318.713L262.219 245.445C266.657 233.883 279.627 228.109 291.188 232.547Z" stroke="white" stroke-opacity="0.1" stroke-width="21.6" stroke-linecap="round" stroke-linejoin="round"/>
</g>
</g>
<rect x="-27.65" y="-28.75" width="519.3" height="427.5" rx="54.45" stroke="#16131F" stroke-width="51.3"/>
</g>
<defs>
<filter id="filter0_f_1_6" x="141.038" y="33.7257" width="422.428" height="452.948" filterUnits="userSpaceOnUse" color-interpolation-filters="sRGB">
<feFlood flood-opacity="0" result="BackgroundImageFix"/>
<feBlend mode="normal" in="SourceGraphic" in2="BackgroundImageFix" result="shape"/>
<feGaussianBlur stdDeviation="7.2" result="effect1_foregroundBlur_1_6"/>
</filter>
<clipPath id="clip0_1_6">
<rect width="1920" height="4371" fill="white" transform="translate(-51 -1036)"/>
</clipPath>
<clipPath id="clip1_1_6">
<rect width="290.309" height="343.162" fill="white" transform="translate(277.858 48.1257) rotate(20.9003)"/>
</clipPath>
<clipPath id="clip2_1_6">
<rect width="269.077" height="269.077" fill="white" transform="translate(283.05 97.3219) rotate(21)"/>
</clipPath>
</defs>
</svg>
