<svg width="429" height="80" viewBox="0 0 429 80" fill="none" xmlns="http://www.w3.org/2000/svg">
<path d="M81.7919 28.0322V38.4921H93.1945V41.859H81.7919V52.6331H94.5412V56H77.7067V24.6653H94.5412V28.0322H81.7919ZM121.912 31.3991L107.097 67.5822H102.877L107.726 55.7306L97.8047 31.3991H102.339L110.06 51.3312L117.692 31.3991H121.912ZM148.464 42.7568C148.464 43.535 148.419 44.358 148.33 45.2259H128.667C128.817 47.6501 129.64 49.5505 131.136 50.9272C132.662 52.274 134.503 52.9473 136.658 52.9473C138.423 52.9473 139.89 52.5433 141.057 51.7353C142.254 50.8973 143.092 49.7899 143.571 48.4132H147.971C147.312 50.7776 145.995 52.7079 144.02 54.2043C142.045 55.6708 139.591 56.404 136.658 56.404C134.323 56.404 132.228 55.8803 130.373 54.8328C128.547 53.7853 127.111 52.3039 126.063 50.3885C125.016 48.4432 124.492 46.1986 124.492 43.6547C124.492 41.1108 125.001 38.8812 126.018 36.9658C127.036 35.0504 128.457 33.5839 130.283 32.5663C132.139 31.5188 134.263 30.9951 136.658 30.9951C138.992 30.9951 141.057 31.5039 142.853 32.5214C144.649 33.539 146.025 34.9456 146.983 36.7413C147.971 38.5071 148.464 40.5122 148.464 42.7568ZM144.244 41.9039C144.244 40.3476 143.9 39.0158 143.212 37.9085C142.524 36.7712 141.581 35.9183 140.384 35.3496C139.217 34.7511 137.915 34.4518 136.478 34.4518C134.413 34.4518 132.647 35.1102 131.181 36.427C129.744 37.7439 128.921 39.5695 128.712 41.9039H144.244ZM152.33 43.6098C152.33 41.0958 152.839 38.8961 153.857 37.0106C154.874 35.0953 156.266 33.6138 158.032 32.5663C159.827 31.5188 161.832 30.9951 164.047 30.9951C165.963 30.9951 167.743 31.444 169.389 32.3419C171.035 33.2098 172.292 34.362 173.16 35.7986V22.7799H177.29V56H173.16V51.3761C172.352 52.8426 171.155 54.0547 169.569 55.0124C167.983 55.9401 166.127 56.404 164.002 56.404C161.818 56.404 159.827 55.8653 158.032 54.7879C156.266 53.7105 154.874 52.1991 153.857 50.2538C152.839 48.3085 152.33 46.0938 152.33 43.6098ZM173.16 43.6547C173.16 41.7991 172.786 40.183 172.038 38.8063C171.29 37.4296 170.272 36.3822 168.985 35.6639C167.728 34.9157 166.337 34.5416 164.81 34.5416C163.284 34.5416 161.892 34.9007 160.635 35.619C159.378 36.3373 158.376 37.3847 157.628 38.7614C156.879 40.1381 156.505 41.7542 156.505 43.6098C156.505 45.4953 156.879 47.1413 157.628 48.5479C158.376 49.9246 159.378 50.9871 160.635 51.7353C161.892 52.4535 163.284 52.8127 164.81 52.8127C166.337 52.8127 167.728 52.4535 168.985 51.7353C170.272 50.9871 171.29 49.9246 172.038 48.5479C172.786 47.1413 173.16 45.5102 173.16 43.6547Z" fill="white"/>
<g clip-path="url(#clip0_30_378)">
<mask id="mask0_30_378" style="mask-type:luminance" maskUnits="userSpaceOnUse" x="-7" y="-1" width="86" height="86">
<path d="M78.3151 -0.61377H-6.61362V84.0361H78.3151V-0.61377Z" fill="white"/>
</mask>
<g mask="url(#mask0_30_378)">
<path d="M41.5471 57.3195C39.667 56.6565 34.9557 55.4187 33.3483 54.6811C31.3006 50.9626 30.1011 46.8397 29.8353 42.6062C29.2871 33.6952 34.283 27.345 35.6313 25.2576C39.6266 27.3614 45.5409 32.4604 46.4472 40.9697C47.1812 47.8635 43.2533 53.9913 41.5426 57.318" fill="black"/>
<path d="M63.426 59.8235C59.0188 59.9041 52.2371 61.1554 45.83 59.7698C43.6743 59.3039 41.7598 58.644 39.9052 57.9885C41.616 54.6633 43.6653 48.9103 43.5994 41.9777C43.5185 33.4295 38.4596 26.7105 36.7953 24.8799C35.447 26.9703 32.4914 33.2936 32.2158 42.3002C32.0659 47.3275 33.2644 53.1701 34.8987 56.143C32.812 55.1814 30.7147 53.7928 29.0414 52.9462C25.5435 50.2138 18.7768 44.9161 14.7665 36.7338C12.4565 32.017 11.8798 27.4316 11.3105 24.0691C14.6197 23.0538 21.4014 21.3636 28.1021 21.9922C37.0065 22.8283 43.0511 26.9867 46.1656 29.0562C49.2695 31.7438 54.2685 35.9051 58.0001 42.9258C60.7989 48.1932 62.6352 53.915 63.423 59.8235" fill="white"/>
<path d="M63.3931 59.9025C44.8713 63.9235 26.6311 58.4408 16.6631 45.5342C10.181 37.1413 8.48373 26.7492 8.25003 21.8308C12.9599 20.3451 23.5855 18.0174 33.7303 21.1664C49.3309 26.013 60.815 41.1743 63.4515 59.8772C61.8771 56.0488 52.6656 37.4877 31.8877 28.7798C24.4649 25.6652 20.5804 23.8107 12.2258 24.3213C12.076 29.5279 14.8324 38.7196 19.5783 43.732C36.1991 61.2777 56.9036 59.6442 63.3931 59.9025Z" fill="#7A6FB9"/>
</g>
</g>
<path d="M254.358 56.1396L252.791 51.2152H241.151L239.584 56.1396H231.75L242.405 24.8024H251.537L262.192 56.1396H254.358ZM243.3 44.5001H250.642L246.971 32.9949L243.3 44.5001Z" fill="#18F349"/>
<path d="M276.727 24.8024C282.905 24.8024 287.695 29.5926 287.695 35.5466C287.695 41.5007 282.905 46.2908 276.727 46.2908H272.027V56.1396H264.864V24.8024H276.727ZM276.727 39.5757C278.921 39.5757 280.533 37.8298 280.533 35.5466C280.533 33.2635 278.921 31.5176 276.727 31.5176H272.027V39.5757H276.727ZM298.433 49.2455H309.624V56.1396H291.27V24.8024H298.433V49.2455ZM325.939 56.7664C316.941 56.7664 309.644 49.6931 309.644 40.471C309.644 31.2489 316.941 24.1757 325.939 24.1757C334.937 24.1757 342.234 31.2489 342.234 40.471C342.234 49.6931 334.937 56.7664 325.939 56.7664ZM325.939 49.7827C331.042 49.7827 335.072 46.067 335.072 40.471C335.072 34.8751 331.042 31.1594 325.939 31.1594C320.835 31.1594 316.806 34.8751 316.806 40.471C316.806 46.067 320.835 49.7827 325.939 49.7827ZM346.267 24.8024H353.43V56.1396H346.267V24.8024ZM383.896 24.8024C392.536 24.8024 399.117 31.6071 399.117 40.471C399.117 49.335 392.536 56.1396 383.896 56.1396H371.361V24.8024H383.896ZM383.896 49.2455C388.821 49.2455 392.223 45.8431 392.223 40.471C392.223 35.0989 388.821 31.6966 383.896 31.6966H378.524V49.2455H383.896ZM410.307 49.2455H422.842V56.1396H403.145V24.8024H422.618V31.6966H410.307V36.8896H421.499V43.6943H410.307V49.2455Z" fill="white"/>
<path d="M362.396 56.7664C360.068 56.7664 358.143 54.8414 358.143 52.5135C358.143 50.1856 360.068 48.2606 362.396 48.2606C364.724 48.2606 366.649 50.1856 366.649 52.5135C366.649 54.8414 364.724 56.7664 362.396 56.7664Z" fill="#A43DF4"/>
<defs>
<clipPath id="clip0_30_378">
<rect width="55.2" height="41.6" fill="white" transform="translate(8.25 19.6001)"/>
</clipPath>
</defs>
</svg>
