<svg width="465" height="370" viewBox="0 0 465 370" fill="none" xmlns="http://www.w3.org/2000/svg">
<g clip-path="url(#clip0_22_89)" filter="url(#filter0_f_22_89)">
<path d="M346.979 391.887C372.498 386.666 382.956 388.337 399.025 381.743C410.492 377.038 426.505 367.148 441.658 343.516C443.53 344.433 445.185 345.739 446.514 347.345C448.366 349.62 449.505 352.391 449.79 355.311L461.017 319.706L468.254 322.469L472.987 261.475L479.298 253.22C476.898 247.394 476.32 240.976 477.64 234.813C487.298 223.578 494.437 210.403 498.575 196.176C502.714 181.95 503.756 167.002 501.632 152.339C489.356 172.629 470.106 187.746 447.488 194.86C444.627 195.069 441.755 194.647 439.076 193.624C436.396 192.601 433.974 191.001 431.981 188.938C426.953 182.354 413.747 167.851 392.741 159.34L392.052 159.077C370.719 151.42 353.276 154.219 345.139 155.776C342.278 155.985 339.406 155.563 336.727 154.54C334.047 153.517 331.625 151.917 329.632 149.855C317.513 129.476 313.239 105.375 317.611 82.0675C306.254 91.582 297.068 103.42 290.671 116.784C284.273 130.148 280.813 144.728 280.524 159.541C277.401 165.015 272.692 169.414 267.019 172.158L266.222 182.518L229.095 231.142L236.332 233.905L220.969 267.932C223.127 265.944 225.824 264.638 228.721 264.177C230.782 263.865 232.886 263.995 234.893 264.559C230.437 292.276 235.782 310.322 241.194 321.473C248.779 337.099 257.688 342.824 273.232 363.726C277.215 369.986 281.312 377.61 285.279 384.915C289.871 393.383 294.064 402.007 297.519 409.733C304.349 406.902 311.383 403.64 319.031 400.964C328.544 397.633 338.295 394.267 346.979 391.887Z" stroke="white" stroke-opacity="0.1" stroke-width="6.3" stroke-miterlimit="10"/>
<path d="M297.902 403.042C291.31 385.061 282.611 367.926 271.987 351.993C264.142 340.233 255.281 329.183 245.506 318.972C236.375 299.094 234.734 276.585 240.884 255.59L248.275 233.134C247.015 231.093 245.11 229.532 242.862 228.697C241.148 228.084 239.305 227.924 237.511 228.233C243.751 219.82 249.991 211.407 256.231 202.993C251.846 217.701 251.482 233.315 255.174 248.21C258.867 263.105 266.483 276.738 277.23 287.69L277.773 288.241C278.003 288.487 278.233 288.733 278.464 288.987C282.757 293.699 288.41 301.178 294.218 310.32C300.27 319.847 307.775 331.691 310.323 345.698C311.798 353.607 311.765 361.724 310.226 369.621C309.461 372.541 308.592 375.546 307.618 378.634C307.408 379.296 307.196 379.954 306.979 380.606C304.447 388.275 301.415 395.77 297.902 403.042Z" stroke="white" stroke-opacity="0.1" stroke-width="3.6" stroke-miterlimit="10"/>
<path d="M463.168 314.405C462.036 312.978 460.556 311.869 458.87 311.183C456.638 310.306 454.176 310.2 451.877 310.883L442.418 332.55C433.009 352.3 416.782 367.986 396.727 376.718C363.455 379.309 331.078 388.756 301.631 404.466C303.676 397.341 306.148 390.346 309.033 383.519C309.552 382.292 310.093 381.051 310.657 379.794C312.061 376.665 313.502 373.688 314.958 370.859C319.169 364.196 324.512 358.321 330.745 353.497C341.981 344.753 355.47 340.926 366.331 337.858C374.193 335.634 379.026 334.269 383.613 333.457C383.629 333.456 383.645 333.453 383.66 333.447C385.228 333.209 386.747 332.999 388.216 332.817L388.295 332.808C389.985 332.6 391.598 332.43 393.158 332.295C408.609 331.424 423.538 326.393 436.367 317.734C449.195 309.075 459.447 297.11 466.038 283.105C465.078 293.539 464.121 303.973 463.168 314.405Z" stroke="white" stroke-opacity="0.1" stroke-width="3.6" stroke-miterlimit="10"/>
<path d="M354.942 307.44C355.754 303.907 355.306 300.469 355 297.982C354.598 294.821 353.79 291.724 352.595 288.77C349.092 289.205 345.71 290.33 342.644 292.079C341.525 288.732 339.753 285.639 337.432 282.979C334.573 284.386 331.906 286.156 329.499 288.244C327.613 289.894 324.988 292.158 323.238 295.333C321.054 299.294 320.308 303.224 320.761 312.161C321.182 320.467 320.732 326.081 320.796 327.579C321.025 332.872 321.676 340.949 320.266 350.681C325.701 342.486 331.57 336.899 335.27 333.106C336.315 332.032 339.722 327.547 345.573 321.636C351.867 315.275 353.93 311.848 354.942 307.44ZM324.145 309.504C324.437 304.48 325.279 299.503 326.653 294.662L330.87 297.063C329.773 300.266 328.732 303.695 327.742 307.322C326.359 312.474 325.323 317.359 324.544 321.9C324.037 317.789 323.904 313.64 324.145 309.504ZM344.477 317.268C341.9 320.512 339.034 323.516 335.916 326.243C338.363 322.339 340.846 318.006 343.249 313.244C344.929 309.88 346.438 306.63 347.756 303.511L352.499 304.532C350.297 309.057 347.607 313.328 344.477 317.268Z" stroke="white" stroke-opacity="0.1" stroke-width="3.6" stroke-miterlimit="10"/>
<path d="M352.626 288.845C349.225 293.341 346.196 298.108 343.57 303.097C336.713 315.883 329.994 325.87 326.058 335.513C329.534 325.098 332.111 312.941 334.61 299.676C335.693 293.935 336.548 288.397 337.203 283.093L337.432 282.979C339.753 285.639 341.525 288.732 342.644 292.079C345.71 290.33 349.092 289.205 352.595 288.77L352.626 288.845Z" stroke="white" stroke-opacity="0.1" stroke-width="3.6" stroke-miterlimit="10"/>
<path d="M328.169 268.41C327.815 268.532 327.088 268.523 326.686 268.634C322.822 269.828 316.689 271.164 310.381 270.094C303.905 268.98 297.89 266.016 293.06 261.56C288.457 256.318 285.721 249.698 285.28 242.734C285.065 238.316 285.753 233.901 287.301 229.757L287.368 229.581C287.544 229.123 287.716 228.671 287.882 228.237C288.388 227.004 288.917 225.919 289.405 224.991L289.87 225.564L289.929 225.637C291.537 227.568 293.146 229.478 294.757 231.368C294.507 232.242 294.307 233.129 294.157 234.026C294.112 234.277 294.073 234.523 294.038 234.771C293.947 235.411 293.875 236.055 293.831 236.698C293.303 243.173 295.267 249.605 299.32 254.68C300.014 255.65 300.792 256.556 301.645 257.389C304.144 259.883 307.305 261.605 310.755 262.353C314.089 263.349 317.574 263.743 321.046 263.518C321.28 263.505 321.509 263.485 321.724 263.469C322.25 263.425 322.716 263.374 323.113 263.316L323.131 263.322C324.276 264.55 325.42 265.776 326.562 267.003C327.011 267.419 327.761 267.978 328.169 268.41Z" stroke="white" stroke-opacity="0.1" stroke-width="3.6" stroke-miterlimit="10"/>
<path d="M370.659 285.236C370.848 285.557 371.75 286.162 371.974 286.528C374.135 289.948 377.926 294.951 383.415 298.24C389.06 301.604 395.557 303.262 402.124 303.014C409.031 302.019 415.413 298.761 420.272 293.75C423.31 290.53 425.66 286.723 427.178 282.563C427.2 282.504 427.222 282.446 427.245 282.387C427.42 281.929 427.571 281.469 427.717 281.027C428.132 279.764 428.437 278.593 428.666 277.57L427.948 277.691L427.855 277.707C425.38 278.123 422.915 278.529 420.461 278.924C420.08 279.749 419.656 280.554 419.189 281.333C419.058 281.552 418.929 281.767 418.795 281.973C418.448 282.52 418.085 283.057 417.698 283.572C413.889 288.833 408.217 292.444 401.84 293.667C400.682 293.953 399.501 294.135 398.311 294.212C394.79 294.49 391.264 293.749 388.153 292.078C384.973 290.663 382.069 288.694 379.577 286.264C379.407 286.1 379.248 285.937 379.094 285.783C378.723 285.409 378.404 285.066 378.139 284.767C376.483 284.968 374.931 284.802 373.271 284.982C372.658 285.028 371.248 285.173 370.659 285.236Z" stroke="white" stroke-opacity="0.1" stroke-width="3.6" stroke-miterlimit="10"/>
<path d="M331.156 271.498C329.982 270.434 328.813 269.361 327.647 268.278L327.393 268.043C325.853 266.617 324.305 265.173 322.75 263.71L321.345 262.384C320.105 261.212 318.863 260.026 317.619 258.824L315.862 257.126C310.726 252.163 305.551 246.975 300.338 241.56C296.515 237.591 292.806 233.644 289.211 229.72L289.146 229.652C287.102 227.421 285.097 225.2 283.129 222.99L282.818 222.638L282.794 222.628C281.134 220.77 279.501 218.914 277.895 217.061C272.316 210.633 267.033 204.314 262.046 198.105C261.964 196.572 261.912 194.972 261.903 193.31C261.891 191.398 261.938 189.567 262.023 187.826C267.919 195.871 274.078 203.991 280.499 212.186L281.469 213.421C282.659 214.929 283.85 216.43 285.04 217.925L285.494 218.493L285.553 218.567C287.122 220.53 288.689 222.476 290.254 224.403L290.471 224.672C299.64 235.962 308.795 246.728 317.936 256.97C319.053 258.229 320.171 259.479 321.289 260.72L322.478 262.042L323.694 263.388C326.187 266.125 328.674 268.828 331.156 271.498Z" stroke="white" stroke-opacity="0.1" stroke-width="3.6" stroke-miterlimit="10"/>
<path d="M474.302 268.889C473.204 270.243 472.02 271.639 470.736 273.057C469.621 274.29 468.516 275.448 467.433 276.535C459.585 277.828 451.437 279.012 442.989 280.089C440.558 280.396 438.104 280.691 435.626 280.975L435.588 280.98L435.13 281.034C432.205 281.365 429.242 281.682 426.242 281.984L426.211 281.973C420.883 282.516 415.454 282.994 409.923 283.408C402.274 283.978 394.809 284.405 387.528 284.687L385.548 284.764C383.705 284.834 381.875 284.894 380.058 284.943L378.463 284.985C376.333 285.046 374.211 285.089 372.096 285.113L371.75 285.12C370.16 285.147 368.573 285.168 366.988 285.181C370.615 284.844 374.273 284.483 377.96 284.098L379.45 283.94L381.514 283.705C383.044 283.539 384.578 283.368 386.117 283.192C399.874 281.633 414.005 279.699 428.51 277.388L428.88 277.328C431.32 276.943 433.775 276.539 436.246 276.116L436.338 276.1L437.002 275.986C438.904 275.659 440.809 275.333 442.718 275.009L444.255 274.735C454.545 272.911 464.56 270.962 474.302 268.889Z" stroke="white" stroke-opacity="0.1" stroke-width="3.6" stroke-miterlimit="10"/>
<path d="M476.414 219.928C473.471 223.046 465.979 230.38 429.115 244.524C407.712 252.739 402.121 253.38 382.037 261.304C367.689 266.968 356.242 272.282 348.831 275.878C345.704 268.257 340.713 256.666 333.791 242.881C324.101 223.587 320.361 219.382 309.881 198.992C291.827 163.877 291.131 153.416 291.015 149.13C290.727 138.715 292.593 119.145 294.998 119.053L296.895 126.492C298.407 115.633 302.368 105.26 308.479 96.1571C308.028 98.3111 307.26 118.995 307.26 118.995C307.972 127.351 309.292 135.644 311.211 143.808C314.036 155.828 316.586 158.611 326.375 184.752C338.754 217.819 339.444 225.638 340.648 230.095C341.957 234.94 342.708 239.177 344.017 244.021C344.017 244.021 345.977 255.434 348.197 260.994L349.475 263.852C348.289 251.83 345.204 235.951 342.51 222.117C339.533 206.764 335.705 191.588 331.044 176.66C330.325 172.756 329.987 168.791 330.037 164.821C330.199 151.75 333.972 140.816 334.802 140.967C335.408 141.076 333.698 146.96 334.838 156.385C335.446 161.357 336.234 167.287 340.306 173.087C342.628 176.365 345.612 179.119 349.064 181.172C346.971 191.515 347.068 202.181 349.348 212.483C352.176 225.231 358.696 234.854 362.477 240.145C368.821 238.721 380.096 235.893 390.701 228.275C399.268 222.115 406.45 214.228 411.783 205.122C415.725 205.893 419.785 205.829 423.701 204.933C430.602 203.323 435.142 199.428 438.91 196.127C446.041 189.86 448.688 184.334 449.213 184.657C449.933 185.098 445.457 195.763 436.866 205.616C434.256 208.608 431.362 211.339 428.224 213.77C414.799 221.792 401.83 230.553 389.377 240.014C378.162 248.536 365.278 258.318 356.367 266.484L359.225 265.205C364.586 262.54 373.654 255.338 373.654 255.338C377.859 252.599 381.243 249.942 385.447 247.203C389.316 244.683 395.042 239.313 426.311 222.914C451.032 209.951 454.788 209.576 464.906 202.499C471.778 197.692 478.289 192.39 484.389 186.635C484.389 186.635 497.602 170.711 498.703 168.798C497.192 179.657 493.23 190.03 487.12 199.132L493.493 194.851C495.223 196.524 483.57 212.356 476.414 219.928Z" stroke="white" stroke-opacity="0.1" stroke-width="3.6" stroke-miterlimit="10"/>
</g>
<defs>
<filter id="filter0_f_22_89" x="141.038" y="33.7257" width="422.428" height="452.948" filterUnits="userSpaceOnUse" color-interpolation-filters="sRGB">
<feFlood flood-opacity="0" result="BackgroundImageFix"/>
<feBlend mode="normal" in="SourceGraphic" in2="BackgroundImageFix" result="shape"/>
<feGaussianBlur stdDeviation="7.2" result="effect1_foregroundBlur_22_89"/>
</filter>
<clipPath id="clip0_22_89">
<rect width="290.309" height="343.162" fill="white" transform="translate(277.858 48.1257) rotate(20.9003)"/>
</clipPath>
</defs>
</svg>
