<svg width="465" height="370" viewBox="0 0 465 370" fill="none" xmlns="http://www.w3.org/2000/svg">
<g clip-path="url(#clip0_22_65)">
<g filter="url(#filter0_f_22_65)">
<path d="M304.4 281.3C309.553 288.19 316.128 293.89 323.679 298.015C331.229 302.14 339.578 304.593 348.16 305.208C356.741 305.823 365.355 304.584 373.416 301.577C381.477 298.57 388.797 293.865 394.88 287.78L430.88 251.78C441.809 240.464 447.857 225.308 447.72 209.576C447.584 193.844 441.274 178.795 430.149 167.671C419.025 156.546 403.976 150.236 388.244 150.1C372.512 149.963 357.356 156.011 346.04 166.94L325.4 187.46M352.4 257.3C347.247 250.41 340.672 244.71 333.121 240.585C325.571 236.46 317.222 234.007 308.64 233.392C300.058 232.777 291.445 234.016 283.384 237.023C275.323 240.03 268.003 244.735 261.92 250.82L225.92 286.82C214.99 298.136 208.943 313.292 209.08 329.024C209.216 344.756 215.526 359.805 226.651 370.929C237.775 382.054 252.824 388.364 268.556 388.5C284.288 388.637 299.444 382.589 310.76 371.66L331.28 351.14" stroke="white" stroke-opacity="0.1" stroke-width="22.5" stroke-linecap="round" stroke-linejoin="round"/>
</g>
</g>
<defs>
<filter id="filter0_f_22_65" x="180.727" y="121.747" width="295.345" height="295.105" filterUnits="userSpaceOnUse" color-interpolation-filters="sRGB">
<feFlood flood-opacity="0" result="BackgroundImageFix"/>
<feBlend mode="normal" in="SourceGraphic" in2="BackgroundImageFix" result="shape"/>
<feGaussianBlur stdDeviation="8.55" result="effect1_foregroundBlur_22_65"/>
</filter>
<clipPath id="clip0_22_65">
<rect width="288" height="288" fill="white" transform="translate(184.4 125.3)"/>
</clipPath>
</defs>
</svg>
