<svg width="465" height="370" viewBox="0 0 465 370" fill="none" xmlns="http://www.w3.org/2000/svg">
<g clip-path="url(#clip0_22_57)" filter="url(#filter0_f_22_57)">
<path d="M425.061 291.992C456.288 299.926 475.171 331.672 467.238 362.9C459.304 394.127 427.558 413.01 396.33 405.077C371.356 398.732 354.277 377.156 352.497 352.797L328.862 346.792C315.67 367.348 290.364 378.155 265.39 371.81C234.163 363.876 215.28 332.13 223.213 300.902C231.147 269.675 262.893 250.792 294.121 258.725C323.339 266.149 341.751 294.419 337.5 323.606L355.974 328.299C366.17 300.623 395.842 284.569 425.061 291.992ZM288.072 282.533C269.993 277.939 251.614 288.872 247.021 306.951C242.427 325.03 253.36 343.409 271.439 348.003C289.518 352.596 307.897 341.663 312.491 323.584C317.084 305.505 306.151 287.126 288.072 282.533ZM419.012 315.8C400.933 311.206 382.554 322.139 377.96 340.218C373.367 358.297 384.3 376.676 402.379 381.269C420.458 385.863 438.837 374.93 443.43 356.851C448.024 338.772 437.091 320.393 419.012 315.8ZM427.858 181.823C442.314 185.496 452.649 198.216 453.285 213.118L455.127 256.051C464.162 260.018 472.926 264.212 481.418 268.632C487.435 271.763 489.774 279.179 486.642 285.196C483.511 291.213 476.094 293.552 470.078 290.421C439.237 274.369 404.429 261.407 365.639 251.552C326.849 241.697 290.075 236.473 255.313 235.857C248.531 235.737 243.131 230.142 243.251 223.36C243.371 216.578 248.966 211.177 255.748 211.297C265.316 211.467 275.015 211.965 284.843 212.791L306.967 175.944C314.639 163.153 329.792 156.908 344.248 160.581L427.858 181.823Z" fill="white" fill-opacity="0.1"/>
</g>
<defs>
<filter id="filter0_f_22_57" x="162.6" y="82.1" width="392.469" height="392.469" filterUnits="userSpaceOnUse" color-interpolation-filters="sRGB">
<feFlood flood-opacity="0" result="BackgroundImageFix"/>
<feBlend mode="normal" in="SourceGraphic" in2="BackgroundImageFix" result="shape"/>
<feGaussianBlur stdDeviation="8.55" result="effect1_foregroundBlur_22_57"/>
</filter>
<clipPath id="clip0_22_57">
<rect width="294.763" height="294.763" fill="white" transform="translate(252.282 99.2) rotate(14.2551)"/>
</clipPath>
</defs>
</svg>
